# xmcd
#
# Track frame offsets:
#	180
#	19059
#	37733
#	57893
#	76749
#	96632
#	119987
#	133278
#	154924
#	175253
#	194544
#	216825
#	228333
#
# Disc length: 3421 seconds
#
# Revision: 1
# Processed by: cddbd v1.5PL3 Copyright (c) Steve Scherf et al.
# Submitted via: audiograbber 1.80.04
#
DISCID=b80d5b0d
DTITLE=Tom Morrell and the Time-Warp Tophands - Son of No Peddlers Allowed
DYEAR=1900
DGENRE=Country
TTITLE0=New Texas Panhandle Rag
TTITLE1=Meet Me in St. Louis
TTITLE2=Tulsa Straight Ahead
TTITLE3=Hillbilly Bebop
TTITLE4=La Golondrina
TTITLE5=Bullet Bag
TTITLE6=Half a Man
TTITLE7=Strike Up the Band
TTITLE8=Midnight in Amarillo
TTITLE9=Blues Guaranteed
TTITLE10=Steel Guitar Jubilee
TTITLE11=Some Like it Hot
TTITLE12=I'm Confessin' That I Love You
EXTD=
EXTT0=
EXTT1=
EXTT2=
EXTT3=
EXTT4=
EXTT5=
EXTT6=
EXTT7=
EXTT8=
EXTT9=
EXTT10=
EXTT11=
EXTT12=
PLAYORDER=
